<svg width="24" height="24" viewBox="0 0 24 24" fill="none" xmlns="http://www.w3.org/2000/svg">
<path d="M8.49823 3.84299C8.67669 3.84299 8.85189 3.89075 9.00566 3.98131C9.15944 4.07186 9.28618 4.20192 9.37273 4.35799L10.5957 6.56099C10.6746 6.70309 10.7176 6.86228 10.7211 7.02476C10.7246 7.18725 10.6884 7.34813 10.6157 7.49349L9.43773 9.85049C9.43773 9.85049 9.77923 11.606 11.2082 13.0355C12.6377 14.4645 14.3872 14.8005 14.3872 14.8005L16.7437 13.622C16.8891 13.5492 17.0501 13.513 17.2127 13.5165C17.3753 13.52 17.5346 13.563 17.6767 13.642L19.8867 14.871C20.0424 14.9577 20.1721 15.0844 20.2624 15.2381C20.3527 15.3918 20.4003 15.5668 20.4002 15.745V18.2815C20.4002 19.5735 19.2002 20.5065 17.9762 20.0935C15.4622 19.245 11.5597 17.63 9.08623 15.1565C6.61323 12.683 4.99773 8.78099 4.14973 6.26649C3.73673 5.04299 4.66973 3.84299 5.96173 3.84299H8.49823Z" stroke="#650D10" stroke-linejoin="round"/>
</svg>
